<?xml version="1.0" encoding="UTF-8"?>
<!-- Created with Inkscape (http://www.inkscape.org/) -->
<svg width="257.28" height="56.704" version="1.1" viewBox="0 0 68.072 15.003" xmlns="http://www.w3.org/2000/svg">
 <g transform="translate(-58.942 -145.37)" stroke-width=".26458">
  <path d="m124.05 157.74q-0.93133 0-1.5579-0.2032-0.62653-0.22013-0.99906-0.7112-0.3556-0.508-0.52493-1.3547-0.1524-0.8636-0.1524-2.1505t0.1524-2.1336q0.16933-0.86359 0.52493-1.3547 0.37253-0.508 0.99906-0.7112 0.62654-0.22013 1.5579-0.22013 0.47413 0 0.98213 0.0339 0.52493 0.0339 0.99906 0.11853 0.47414 0.0677 0.79587 0.16933l-0.22013 1.524q-0.5588-0.13547-1.1007-0.18627-0.52493-0.0677-1.1007-0.0677-0.77893 0-1.0837 0.3048t-0.3048 1.0837v4.0979q0.52493 0.16933 1.524 0.16933 0.5588 0 1.0668-0.1016 0.52493-0.1016 1.2023-0.32173l0.2032 1.4901q-0.6096 0.254-1.3885 0.38947-0.762 0.13546-1.5748 0.13546z" fill="#14b8a6"/>
  <path d="m116.4 157.74q-0.93133 0-1.5579-0.2032-0.62653-0.22013-0.99907-0.7112-0.3556-0.508-0.52493-1.3547-0.1524-0.8636-0.1524-2.1505t0.1524-2.1336q0.16933-0.86359 0.52493-1.3547 0.37254-0.508 0.99907-0.7112 0.62653-0.22013 1.5579-0.22013 0.47413 0 0.98213 0.0339 0.52494 0.0339 0.99907 0.11853 0.47413 0.0677 0.79586 0.16933l-0.22013 1.524q-0.5588-0.13547-1.1007-0.18627-0.52494-0.0677-1.1007-0.0677-0.77893 0-1.0837 0.3048t-0.3048 1.0837v4.0979q0.52493 0.16933 1.524 0.16933 0.5588 0 1.0668-0.1016 0.52493-0.1016 1.2023-0.32173l0.2032 1.4901q-0.6096 0.254-1.3885 0.38947-0.762 0.13546-1.5748 0.13546z" fill="#14b8a6"/>
  <path d="m108.95 156.35q0-0.67733 0.23707-0.98213 0.254-0.32173 1.0499-0.32173 0.77893 0 1.016 0.32173 0.23707 0.3048 0.23707 0.98213 0 0.7112-0.23707 1.016-0.23706 0.28787-1.0329 0.28787-0.77893 0-1.0329-0.28787-0.23707-0.3048-0.23707-1.016z" fill="#ef4444"/>
  <path d="m105.78 147.78q-0.7112 0-0.9652-0.23706-0.254-0.254-0.254-0.94827 0-0.7112 0.254-0.9652t0.9652-0.254q0.69426 0 0.94826 0.254t0.254 0.9652q0 0.69427-0.254 0.94827-0.23706 0.23706-0.94826 0.23706z" fill="#ef4444"/>
  <g fill="#14b8a6">
   <path d="m104.73 149.27 2.0828-0.28786v8.5682h-2.0828z"/>
   <path d="m94.908 157.55v-11.091l2.032-0.16933v3.302q0.54187-0.37253 1.2023-0.52493 0.6604-0.16933 1.5071-0.16933 1.1853 0 1.8119 0.4064 0.62653 0.38946 0.62653 1.1515v7.0951h-2.0828v-6.9427h-1.6425q-0.79586 0-1.0837 0.2032-0.28787 0.18627-0.28787 0.7112v6.0283z"/>
   <path d="m90.015 157.74q-0.93133 0-1.5579-0.2032-0.62653-0.22013-0.99906-0.7112-0.3556-0.508-0.52493-1.3547-0.1524-0.8636-0.1524-2.1505t0.1524-2.1336q0.16933-0.86359 0.52493-1.3547 0.37253-0.508 0.99906-0.7112 0.62653-0.22013 1.5579-0.22013 0.47413 0 0.98213 0.0339 0.52493 0.0339 0.99906 0.11853 0.47413 0.0677 0.79586 0.16933l-0.22013 1.524q-0.5588-0.13547-1.1007-0.18627-0.52493-0.0677-1.1007-0.0677-0.77893 0-1.0837 0.3048-0.3048 0.3048-0.3048 1.0837v4.0979q0.52493 0.16933 1.524 0.16933 0.5588 0 1.0668-0.1016 0.52493-0.1016 1.2023-0.32173l0.2032 1.4901q-0.6096 0.254-1.3885 0.38947-0.762 0.13546-1.5748 0.13546z"/>
   <path d="m84.528 149.08v8.4666h-0.99906l-0.54186-0.84667q-0.69426 0.52493-1.5071 0.77893-0.8128 0.254-1.8288 0.254-1.1853 0-1.7441-0.4572-0.5588-0.47413-0.5588-1.4732v-6.7225h2.0828v7.1289h1.7441q0.72813 0 0.99906-0.18627 0.27093-0.18627 0.27093-0.67733v-6.2653z"/>
   <path d="m71.507 155.09q-1.2869 0-2.0659-0.3048-0.762-0.3048-1.1007-0.98213-0.33867-0.67734-0.33867-1.8457 0-1.1515 0.33867-1.8288 0.33867-0.69426 1.1007-0.99906 0.77893-0.3048 2.0659-0.3048 1.3039 0 2.0659 0.3048 0.762 0.3048 1.1007 0.98213t0.33867 1.8457q0 1.1515-0.33867 1.8457-0.32173 0.69426-1.1007 0.99906-0.762 0.28787-2.0659 0.28787zm-1.4732-1.27h1.8627q0.6096 0 0.84666-0.2032 0.23707-0.2032 0.23707-0.72813v-2.8109h-1.8627q-0.6096 0-0.84666 0.2032t-0.23707 0.72813zm5.08 4.318q0 0.79587-0.3556 1.2869-0.33867 0.508-1.1007 0.72813-0.762 0.22014-2.032 0.22014-0.94826 0-1.8627-0.13547-0.89746-0.13547-1.6087-0.38947l0.254-1.524q0.84666 0.22013 1.4901 0.32173 0.6604 0.1016 1.3377 0.1016 0.62653 0 1.0837-0.0508 0.47413-0.0339 0.93133-0.11853v-1.1007q-1.6933-0.11853-2.4215-0.28786-0.7112-0.16934-0.7112-0.47414l0.54187-1.9304 1.3377 0.0169-0.1016 1.3039q0.99906 0.13546 1.6256 0.27093 0.64347 0.13546 0.98213 0.3556 0.33867 0.22013 0.47413 0.5588 0.13547 0.33866 0.13547 0.84666zm-0.762-7.4168-1.1684-1.4732 1.5071-1.1515 1.016 0.99907z"/>
   <path d="m62.498 157.74q-0.99906 0-1.6933-0.22013-0.69426-0.22013-1.1007-0.7112-0.4064-0.508-0.59267-1.3547-0.16933-0.8636-0.16933-2.1336 0-1.6425 0.3556-2.6077 0.3556-0.98213 1.1853-1.3885 0.84666-0.42333 2.2521-0.42333 1.3716 0 2.1336 0.23707 0.762 0.22013 1.0668 0.79586 0.32173 0.5588 0.32173 1.5748 0 0.8636-0.2032 1.4055-0.2032 0.52493-0.74506 0.8128t-1.5409 0.4064q-0.99906 0.1016-2.6247 0.1016h-0.508v-1.2361h2.3707q0.79586 0 1.0837-0.18627 0.28787-0.2032 0.28787-0.74506v-1.5409h-1.8796q-0.77893 0-1.0668 0.18626-0.28787 0.18627-0.28787 0.72813v4.5381q0.33867 0.0847 0.72813 0.13547 0.38947 0.0339 0.94826 0.0339 0.69426 0 1.3716-0.1016t1.5748-0.32173l0.27093 1.4901q-0.69426 0.254-1.6256 0.38947-0.9144 0.13546-1.9135 0.13546z"/>
  </g>
 </g>
</svg>
